<svg width="353" height="354" viewBox="0 0 353 354" fill="none" xmlns="http://www.w3.org/2000/svg">
<ellipse cx="176.5" cy="177" rx="176.5" ry="177" fill="#F3C377"/>
<path d="M221 313L265 280L289 234L314 211H338L328 193L308 187L289 201L282 211L275 201L256 187L233 193L221 211H246L269 237L256 261L227 275H198L169 270L149 253L133 223L113 201L76 193L45 211M221 313L156 323L113 313L94.5 296.5M221 313L156 304L122 280L113 296.5L122 336L106 323L94.5 296.5M45 211L52 243L76 280L94.5 296.5M45 211L76 223L95 253L94.5 296.5M176 201L133 174L113 125V67L122 52L128 67V125L143 163L169 141V111V67V40L176 18L187 40V67V111V141L215 163L233 125V67L239 52L246 67V125L227 174L176 201Z" stroke="#003756" stroke-width="5"/>
<ellipse cx="174" cy="108" rx="122" ry="97" fill="white"/>
<path d="M107.346 102.688C107.346 102.891 107.244 103.018 107.041 103.068C106.669 103.153 106.322 103.229 106 103.297C105.678 103.348 105.331 103.449 104.959 103.602C104.113 103.974 103.368 104.499 102.725 105.176C102.098 105.836 101.531 106.572 101.023 107.385C100.533 108.197 100.101 109.044 99.7285 109.924C99.373 110.804 99.043 111.65 98.7383 112.463C98.4336 113.275 98.1289 114.173 97.8242 115.154C97.5195 116.119 97.1895 117.092 96.834 118.074C96.4954 119.039 96.1061 119.97 95.666 120.867C95.2428 121.764 94.7435 122.543 94.168 123.203C94.1172 123.254 94.0495 123.288 93.9648 123.305C93.8971 123.322 93.821 123.33 93.7363 123.33C93.584 123.33 93.4824 123.262 93.4316 123.127C93.1777 122.484 92.9831 121.781 92.8477 121.02C92.7292 120.241 92.6276 119.505 92.543 118.811C92.2891 116.61 92.0775 114.418 91.9082 112.234C91.7559 110.034 91.4766 107.85 91.0703 105.684C90.4779 107.173 89.9277 108.663 89.4199 110.152C88.9121 111.642 88.3704 113.132 87.7949 114.621C87.3887 115.671 86.9401 116.695 86.4492 117.693C85.9753 118.692 85.3913 119.64 84.6973 120.537C84.3418 120.994 83.944 121.417 83.5039 121.807C83.0638 122.196 82.5898 122.535 82.082 122.822C81.5742 123.11 81.041 123.33 80.4824 123.482C79.9238 123.652 79.3483 123.736 78.7559 123.736C78.6712 123.736 78.6035 123.694 78.5527 123.609C78.485 123.525 78.4512 123.44 78.4512 123.355C78.4512 123.152 78.5443 123.034 78.7305 123C79.069 122.915 79.3991 122.848 79.7207 122.797C80.0254 122.729 80.347 122.628 80.6855 122.492C81.4811 122.137 82.1751 121.646 82.7676 121.02C83.377 120.393 83.9186 119.699 84.3926 118.938C84.8665 118.176 85.2728 117.38 85.6113 116.551C85.9668 115.721 86.2884 114.926 86.5762 114.164C86.8301 113.487 87.0671 112.801 87.2871 112.107C87.5241 111.413 87.7526 110.728 87.9727 110.051C88.2096 109.357 88.4551 108.671 88.709 107.994C88.9798 107.317 89.2845 106.657 89.623 106.014C89.1491 106.301 88.6667 106.564 88.1758 106.801C87.6849 107.021 87.2025 107.275 86.7285 107.562C86.0514 107.969 85.3743 108.451 84.6973 109.01C84.0371 109.568 83.5378 110.229 83.1992 110.99C83.1146 111.176 83.0553 111.363 83.0215 111.549C82.9876 111.718 82.9453 111.896 82.8945 112.082C82.8438 112.251 82.7253 112.336 82.5391 112.336C82.4883 112.336 82.4036 112.302 82.2852 112.234C82.1836 112.167 82.1328 112.099 82.1328 112.031C82.1328 111.405 82.2428 110.821 82.4629 110.279C82.6829 109.738 82.9792 109.238 83.3516 108.781C83.724 108.307 84.1471 107.876 84.6211 107.486C85.0951 107.097 85.5775 106.75 86.0684 106.445C86.8639 105.954 87.6764 105.48 88.5059 105.023C89.3522 104.566 90.2155 104.186 91.0957 103.881H91.1465C91.2819 103.881 91.4004 103.932 91.502 104.033C91.6204 104.135 91.6628 104.253 91.6289 104.389C92.1198 106.031 92.4922 107.681 92.7461 109.34C93 110.999 93.2285 112.674 93.4316 114.367C93.5671 115.518 93.7025 116.669 93.8379 117.82C93.9733 118.954 94.0749 120.105 94.1426 121.273C94.7689 119.733 95.3359 118.193 95.8438 116.652C96.3685 115.095 96.9271 113.546 97.5195 112.006C97.9596 110.889 98.4336 109.805 98.9414 108.756C99.4492 107.689 100.059 106.682 100.77 105.734C101.142 105.26 101.557 104.82 102.014 104.414C102.488 103.991 102.987 103.627 103.512 103.322C104.053 103.001 104.62 102.755 105.213 102.586C105.805 102.4 106.406 102.307 107.016 102.307C107.1 102.307 107.176 102.349 107.244 102.434C107.312 102.518 107.346 102.603 107.346 102.688ZM111.51 119.039C111.07 119.936 110.613 120.74 110.139 121.451C109.665 122.145 109.047 122.822 108.285 123.482C107.913 123.821 107.49 123.99 107.016 123.99C106.762 123.99 106.516 123.914 106.279 123.762C106.059 123.626 105.907 123.432 105.822 123.178C105.788 123.093 105.763 122.975 105.746 122.822C105.746 122.67 105.738 122.509 105.721 122.34C105.721 122.171 105.721 122.01 105.721 121.857C105.738 121.688 105.746 121.553 105.746 121.451C105.154 122.162 104.451 122.763 103.639 123.254C102.843 123.762 101.963 124.016 100.998 124.016C100.947 124.016 100.871 123.999 100.77 123.965C100.685 123.931 100.617 123.906 100.566 123.889C100.177 123.702 99.8809 123.406 99.6777 123C99.4915 122.594 99.3984 122.188 99.3984 121.781C99.3984 121.223 99.4661 120.673 99.6016 120.131C99.7539 119.572 99.9486 119.039 100.186 118.531C100.439 118.007 100.727 117.507 101.049 117.033C101.37 116.559 101.709 116.111 102.064 115.688C102.979 114.553 104.028 113.572 105.213 112.742C106.398 111.896 107.684 111.219 109.072 110.711C109.089 110.694 109.123 110.686 109.174 110.686C109.292 110.686 109.377 110.728 109.428 110.812C109.495 110.897 109.529 110.99 109.529 111.092C109.529 111.244 109.47 111.346 109.352 111.396C109.064 111.549 108.776 111.693 108.488 111.828C108.217 111.947 107.947 112.082 107.676 112.234C105.797 113.318 104.214 114.706 102.928 116.398C102.674 116.737 102.411 117.118 102.141 117.541C101.87 117.964 101.624 118.404 101.404 118.861C101.184 119.301 100.998 119.758 100.846 120.232C100.71 120.706 100.643 121.163 100.643 121.604C100.643 121.671 100.651 121.773 100.668 121.908C100.685 122.027 100.71 122.154 100.744 122.289C100.778 122.408 100.829 122.518 100.896 122.619C100.981 122.704 101.074 122.746 101.176 122.746C101.667 122.746 102.141 122.619 102.598 122.365C103.072 122.111 103.512 121.79 103.918 121.4C104.324 121.011 104.688 120.596 105.01 120.156C105.331 119.716 105.594 119.301 105.797 118.912C106.186 118.201 106.533 117.49 106.838 116.779C107.143 116.051 107.447 115.324 107.752 114.596C107.87 114.291 108.006 113.936 108.158 113.529C108.327 113.123 108.488 112.776 108.641 112.488C108.708 112.37 108.818 112.311 108.971 112.311C109.089 112.311 109.191 112.344 109.275 112.412C109.36 112.48 109.402 112.573 109.402 112.691L109.377 112.742C109.242 113.352 109.089 113.969 108.92 114.596C108.751 115.205 108.564 115.806 108.361 116.398C108.277 116.635 108.175 116.898 108.057 117.186C107.938 117.473 107.845 117.719 107.777 117.922C107.743 118.04 107.718 118.159 107.701 118.277C107.701 118.396 107.693 118.514 107.676 118.633C107.625 118.904 107.566 119.174 107.498 119.445C107.447 119.699 107.388 119.962 107.32 120.232C107.236 120.571 107.16 120.918 107.092 121.273C107.041 121.612 107.016 121.959 107.016 122.314C107.016 122.399 107.016 122.475 107.016 122.543C107.016 122.611 107.024 122.678 107.041 122.746C107.16 122.746 107.295 122.695 107.447 122.594C107.617 122.492 107.786 122.374 107.955 122.238C108.124 122.086 108.277 121.934 108.412 121.781C108.564 121.629 108.683 121.51 108.768 121.426C109.275 120.884 109.758 120.283 110.215 119.623C110.333 119.488 110.435 119.344 110.52 119.191C110.621 119.022 110.731 118.87 110.85 118.734C110.9 118.65 110.977 118.607 111.078 118.607C111.197 118.607 111.298 118.65 111.383 118.734C111.467 118.819 111.51 118.921 111.51 119.039ZM124.434 120.486C124.434 120.554 124.4 120.622 124.332 120.689C123.993 121.079 123.672 121.46 123.367 121.832C123.062 122.204 122.732 122.551 122.377 122.873C122.038 123.195 121.658 123.474 121.234 123.711C120.828 123.948 120.363 124.126 119.838 124.244C119.059 123.889 118.67 123.288 118.67 122.441C118.67 122.255 118.687 122.069 118.721 121.883C118.755 121.68 118.763 121.477 118.746 121.273C118.509 121.527 118.213 121.815 117.857 122.137C117.519 122.441 117.146 122.738 116.74 123.025C116.351 123.313 115.953 123.55 115.547 123.736C115.141 123.939 114.76 124.041 114.404 124.041C113.93 124.041 113.541 123.939 113.236 123.736C112.932 123.55 112.686 123.305 112.5 123C112.331 122.678 112.212 122.323 112.145 121.934C112.077 121.527 112.043 121.13 112.043 120.74C112.043 120.334 112.068 119.936 112.119 119.547C112.204 118.734 112.348 117.956 112.551 117.211C112.754 116.449 112.999 115.696 113.287 114.951C113.507 114.426 113.736 113.91 113.973 113.402C114.21 112.878 114.447 112.361 114.684 111.854C114.768 111.684 114.853 111.498 114.938 111.295C115.022 111.075 115.115 110.897 115.217 110.762C115.301 110.643 115.403 110.584 115.521 110.584C115.606 110.584 115.699 110.626 115.801 110.711C115.902 110.796 115.953 110.88 115.953 110.965C115.953 111.083 115.928 111.253 115.877 111.473C115.843 111.676 115.792 111.896 115.725 112.133C115.674 112.353 115.615 112.573 115.547 112.793C115.496 112.996 115.445 113.157 115.395 113.275C115.208 113.885 114.988 114.494 114.734 115.104C114.497 115.696 114.269 116.305 114.049 116.932C113.846 117.541 113.668 118.159 113.516 118.785C113.38 119.411 113.312 120.046 113.312 120.689C113.312 120.876 113.321 121.096 113.338 121.35C113.355 121.587 113.397 121.824 113.465 122.061C113.533 122.281 113.634 122.475 113.77 122.645C113.922 122.797 114.125 122.873 114.379 122.873C114.717 122.873 115.098 122.763 115.521 122.543C115.962 122.306 116.393 122.035 116.816 121.73C117.257 121.409 117.671 121.079 118.061 120.74C118.45 120.402 118.763 120.122 119 119.902C119.152 119.174 119.355 118.362 119.609 117.465C119.88 116.551 120.193 115.637 120.549 114.723C120.904 113.809 121.294 112.945 121.717 112.133C122.14 111.303 122.597 110.609 123.088 110.051C123.173 109.966 123.257 109.924 123.342 109.924C123.443 109.924 123.545 109.966 123.646 110.051C123.748 110.135 123.799 110.237 123.799 110.355C123.782 110.372 123.773 110.389 123.773 110.406C123.452 111.303 123.062 112.277 122.605 113.326C122.165 114.359 121.742 115.417 121.336 116.5C120.93 117.566 120.583 118.633 120.295 119.699C120.007 120.766 119.863 121.781 119.863 122.746C119.863 122.814 119.863 122.882 119.863 122.949C119.88 123.017 119.923 123.068 119.99 123.102C120.38 123.034 120.786 122.839 121.209 122.518C121.649 122.196 122.055 121.857 122.428 121.502C122.817 121.13 123.156 120.799 123.443 120.512C123.731 120.224 123.917 120.08 124.002 120.08C124.104 120.08 124.197 120.122 124.281 120.207C124.383 120.292 124.434 120.385 124.434 120.486ZM132.33 106.369C132.33 106.403 132.322 106.428 132.305 106.445C132.305 106.462 132.305 106.479 132.305 106.496C131.78 107.664 131.238 108.824 130.68 109.975C130.121 111.109 129.622 112.285 129.182 113.504C129.368 113.504 129.546 113.504 129.715 113.504C129.884 113.487 130.062 113.479 130.248 113.479C130.333 113.479 130.426 113.479 130.527 113.479C130.646 113.462 130.747 113.47 130.832 113.504C130.934 113.521 131.018 113.563 131.086 113.631C131.154 113.682 131.188 113.775 131.188 113.91C131.188 114.079 131.12 114.189 130.984 114.24C130.866 114.274 130.705 114.316 130.502 114.367C130.316 114.401 130.113 114.435 129.893 114.469C129.689 114.503 129.486 114.536 129.283 114.57C129.097 114.587 128.936 114.604 128.801 114.621C128.648 115.061 128.505 115.552 128.369 116.094C128.234 116.618 128.115 117.169 128.014 117.744C127.912 118.303 127.827 118.861 127.76 119.42C127.692 119.962 127.658 120.461 127.658 120.918C127.658 121.036 127.658 121.223 127.658 121.477C127.675 121.714 127.701 121.951 127.734 122.188C127.785 122.424 127.853 122.636 127.938 122.822C128.039 123.008 128.174 123.102 128.344 123.102C128.581 123.102 128.852 122.983 129.156 122.746C129.461 122.509 129.757 122.238 130.045 121.934C130.35 121.612 130.629 121.299 130.883 120.994C131.154 120.673 131.374 120.427 131.543 120.258C131.611 120.19 131.687 120.156 131.771 120.156C131.873 120.156 131.966 120.199 132.051 120.283C132.152 120.368 132.203 120.461 132.203 120.562C132.203 120.613 132.178 120.673 132.127 120.74C131.941 121.011 131.695 121.35 131.391 121.756C131.103 122.145 130.781 122.526 130.426 122.898C130.087 123.254 129.723 123.559 129.334 123.812C128.962 124.066 128.598 124.193 128.242 124.193C127.853 124.193 127.54 124.058 127.303 123.787C127.066 123.516 126.88 123.195 126.744 122.822C126.626 122.433 126.541 122.035 126.49 121.629C126.456 121.206 126.439 120.85 126.439 120.562C126.439 120.156 126.465 119.699 126.516 119.191C126.583 118.684 126.66 118.167 126.744 117.643C126.829 117.118 126.93 116.61 127.049 116.119C127.167 115.611 127.277 115.154 127.379 114.748C127.243 114.748 127.108 114.757 126.973 114.773C126.854 114.773 126.727 114.773 126.592 114.773C126.236 114.773 125.872 114.765 125.5 114.748C125.128 114.731 124.764 114.697 124.408 114.646C124.053 114.579 123.706 114.477 123.367 114.342C123.029 114.189 122.724 113.986 122.453 113.732C122.385 113.682 122.352 113.605 122.352 113.504C122.352 113.47 122.402 113.385 122.504 113.25C122.605 113.098 122.673 113.021 122.707 113.021C123.333 113.021 123.951 113.089 124.561 113.225C125.17 113.36 125.788 113.445 126.414 113.479C126.617 113.495 126.82 113.504 127.023 113.504C127.243 113.504 127.464 113.504 127.684 113.504H127.76C127.946 112.928 128.174 112.302 128.445 111.625C128.716 110.948 129.021 110.279 129.359 109.619C129.698 108.959 130.053 108.324 130.426 107.715C130.815 107.089 131.213 106.547 131.619 106.09C131.721 106.022 131.805 105.988 131.873 105.988C131.975 105.988 132.076 106.031 132.178 106.115C132.279 106.183 132.33 106.268 132.33 106.369ZM139.312 104.084C139.312 104.186 139.27 104.304 139.186 104.439L139.16 104.516C139.194 104.617 139.211 104.693 139.211 104.744C139.092 104.829 139.008 104.922 138.957 105.023C138.906 105.108 138.788 105.15 138.602 105.15C138.449 105.15 138.297 105.091 138.145 104.973C137.992 104.837 137.916 104.676 137.916 104.49C137.916 104.186 137.941 103.94 137.992 103.754C138.06 103.551 138.288 103.449 138.678 103.449C138.83 103.449 138.974 103.517 139.109 103.652C139.245 103.788 139.312 103.932 139.312 104.084ZM139.135 120.283C139.135 120.368 139.109 120.436 139.059 120.486C138.737 120.876 138.424 121.265 138.119 121.654C137.831 122.027 137.518 122.374 137.18 122.695C136.858 123.017 136.494 123.288 136.088 123.508C135.682 123.745 135.216 123.914 134.691 124.016C134.234 123.812 133.921 123.542 133.752 123.203C133.583 122.882 133.498 122.484 133.498 122.01V121.096C133.498 120.656 133.54 120.199 133.625 119.725C133.727 119.251 133.828 118.794 133.93 118.354C134.082 117.693 134.251 116.982 134.438 116.221C134.641 115.459 134.869 114.706 135.123 113.961C135.394 113.199 135.699 112.471 136.037 111.777C136.376 111.066 136.757 110.449 137.18 109.924C137.264 109.839 137.349 109.797 137.434 109.797C137.535 109.797 137.637 109.839 137.738 109.924C137.84 109.992 137.891 110.085 137.891 110.203V110.254C137.603 111.151 137.273 112.099 136.9 113.098C136.545 114.079 136.198 115.087 135.859 116.119C135.538 117.135 135.258 118.15 135.021 119.166C134.801 120.182 134.691 121.163 134.691 122.111C134.691 122.213 134.691 122.357 134.691 122.543C134.708 122.729 134.768 122.848 134.869 122.898C135.242 122.831 135.631 122.636 136.037 122.314C136.46 121.993 136.85 121.654 137.205 121.299C137.577 120.943 137.899 120.622 138.17 120.334C138.441 120.046 138.627 119.902 138.729 119.902C138.813 119.902 138.898 119.945 138.982 120.029C139.084 120.114 139.135 120.199 139.135 120.283ZM147.311 111.041C147.311 111.21 147.243 111.32 147.107 111.371C146.82 111.507 146.532 111.633 146.244 111.752C145.973 111.87 145.702 112.023 145.432 112.209C144.298 112.903 143.324 113.783 142.512 114.85C141.699 115.916 141.124 117.092 140.785 118.379C140.633 119.039 140.557 119.708 140.557 120.385C140.557 120.622 140.574 120.884 140.607 121.172C140.641 121.443 140.701 121.714 140.785 121.984C140.887 122.255 141.014 122.501 141.166 122.721C141.335 122.941 141.547 123.102 141.801 123.203C141.818 123.22 141.843 123.229 141.877 123.229C141.928 123.229 141.962 123.229 141.979 123.229C142.402 123.229 142.791 123.118 143.146 122.898C143.502 122.661 143.824 122.399 144.111 122.111C144.568 121.654 145 121.13 145.406 120.537C145.491 120.419 145.576 120.3 145.66 120.182C145.745 120.063 145.829 119.953 145.914 119.852C145.965 119.767 146.041 119.725 146.143 119.725C146.244 119.725 146.337 119.767 146.422 119.852C146.523 119.919 146.574 120.004 146.574 120.105C146.574 120.139 146.532 120.224 146.447 120.359C146.38 120.495 146.295 120.647 146.193 120.816C146.092 120.969 145.99 121.121 145.889 121.273C145.804 121.409 145.745 121.502 145.711 121.553C145.474 121.908 145.22 122.255 144.949 122.594C144.695 122.932 144.408 123.229 144.086 123.482C143.781 123.736 143.434 123.939 143.045 124.092C142.656 124.244 142.232 124.32 141.775 124.32C141.674 124.32 141.598 124.312 141.547 124.295C141.225 124.244 140.938 124.117 140.684 123.914C140.447 123.728 140.235 123.491 140.049 123.203C139.88 122.932 139.744 122.645 139.643 122.34C139.541 122.018 139.465 121.714 139.414 121.426C139.38 121.223 139.355 121.02 139.338 120.816C139.321 120.613 139.312 120.402 139.312 120.182C139.312 119.454 139.397 118.76 139.566 118.1C139.736 117.355 139.981 116.618 140.303 115.891C140.641 115.163 141.048 114.486 141.521 113.859C141.995 113.233 142.537 112.683 143.146 112.209C143.756 111.718 144.433 111.329 145.178 111.041C145.432 110.939 145.719 110.846 146.041 110.762C146.363 110.66 146.667 110.609 146.955 110.609C147.04 110.609 147.116 110.66 147.184 110.762C147.268 110.863 147.311 110.956 147.311 111.041ZM166.404 123H163.802V107.397H154.598V104.795H175.608V107.397H166.404V123ZM190.729 111.295H180.979C180.708 111.295 180.454 111.35 180.217 111.46C179.98 111.562 179.772 111.701 179.595 111.879C179.417 112.057 179.277 112.264 179.176 112.501C179.074 112.738 179.023 112.988 179.023 113.25V123H176.421V113.25C176.421 112.615 176.539 112.023 176.776 111.473C177.013 110.923 177.339 110.444 177.754 110.038C178.169 109.623 178.651 109.298 179.201 109.061C179.751 108.824 180.344 108.705 180.979 108.705H190.729V111.295ZM208.68 123H195.68C195.045 123 194.452 122.882 193.902 122.645C193.352 122.408 192.87 122.086 192.455 121.68C192.04 121.265 191.715 120.783 191.478 120.232C191.241 119.674 191.122 119.081 191.122 118.455C191.122 117.82 191.241 117.228 191.478 116.678C191.715 116.128 192.04 115.645 192.455 115.23C192.87 114.816 193.352 114.49 193.902 114.253C194.452 114.016 195.045 113.897 195.68 113.897H204.77V116.5H195.68C195.409 116.5 195.155 116.555 194.918 116.665C194.681 116.767 194.474 116.906 194.296 117.084C194.118 117.262 193.979 117.469 193.877 117.706C193.775 117.943 193.725 118.193 193.725 118.455C193.725 118.726 193.775 118.98 193.877 119.217C193.979 119.445 194.118 119.648 194.296 119.826C194.474 120.004 194.681 120.144 194.918 120.245C195.155 120.347 195.409 120.397 195.68 120.397H206.077V113.25C206.077 112.988 206.022 112.738 205.912 112.501C205.811 112.264 205.671 112.057 205.493 111.879C205.315 111.701 205.108 111.562 204.871 111.46C204.634 111.35 204.384 111.295 204.122 111.295H193.725V108.705H204.122C204.757 108.705 205.349 108.824 205.899 109.061C206.45 109.298 206.932 109.623 207.347 110.038C207.761 110.444 208.087 110.923 208.324 111.473C208.561 112.023 208.68 112.615 208.68 113.25V123ZM229.233 108.705L221.337 123H218.366L210.521 108.705H213.555L219.852 120.296L226.199 108.705H229.233ZM247.629 113.25C247.629 113.885 247.51 114.477 247.273 115.027C247.036 115.577 246.711 116.06 246.296 116.475C245.89 116.881 245.407 117.202 244.849 117.439C244.299 117.676 243.71 117.795 243.084 117.795H233.118C233.304 118.176 233.537 118.527 233.816 118.849C234.096 119.17 234.409 119.445 234.756 119.674C235.103 119.902 235.479 120.08 235.886 120.207C236.3 120.334 236.732 120.397 237.181 120.397H245.687V123H237.181C236.199 122.992 235.276 122.801 234.413 122.429C233.55 122.048 232.797 121.536 232.153 120.893C231.519 120.241 231.015 119.483 230.643 118.62C230.27 117.757 230.084 116.834 230.084 115.853C230.084 114.871 230.27 113.948 230.643 113.085C231.015 112.222 231.519 111.468 232.153 110.825C232.797 110.174 233.55 109.661 234.413 109.289C235.276 108.908 236.199 108.714 237.181 108.705H243.084C243.71 108.705 244.299 108.824 244.849 109.061C245.407 109.298 245.89 109.623 246.296 110.038C246.711 110.444 247.036 110.923 247.273 111.473C247.51 112.023 247.629 112.615 247.629 113.25ZM243.084 115.205C243.346 115.205 243.596 115.154 243.833 115.053C244.07 114.951 244.277 114.812 244.455 114.634C244.633 114.456 244.772 114.249 244.874 114.012C244.976 113.775 245.026 113.521 245.026 113.25C245.026 112.988 244.976 112.738 244.874 112.501C244.772 112.264 244.633 112.057 244.455 111.879C244.277 111.701 244.07 111.562 243.833 111.46C243.596 111.35 243.346 111.295 243.084 111.295H237.181C236.605 111.295 236.063 111.396 235.556 111.6C235.056 111.803 234.608 112.082 234.21 112.438C233.821 112.785 233.495 113.199 233.232 113.682C232.979 114.156 232.813 114.663 232.737 115.205H243.084ZM255.284 123H254.637C254.002 123 253.41 122.882 252.859 122.645C252.309 122.408 251.827 122.086 251.412 121.68C250.997 121.265 250.672 120.783 250.435 120.232C250.198 119.674 250.079 119.081 250.079 118.455V103.5H252.682V118.455C252.682 118.726 252.732 118.98 252.834 119.217C252.936 119.445 253.075 119.648 253.253 119.826C253.431 120.004 253.638 120.144 253.875 120.245C254.112 120.347 254.366 120.397 254.637 120.397H255.284V123ZM272.474 118.455C272.474 119.081 272.355 119.674 272.118 120.232C271.881 120.783 271.555 121.265 271.141 121.68C270.734 122.086 270.252 122.408 269.693 122.645C269.143 122.882 268.555 123 267.929 123H256.871V120.397H267.929C268.191 120.397 268.441 120.347 268.678 120.245C268.915 120.144 269.122 120.004 269.3 119.826C269.478 119.648 269.617 119.445 269.719 119.217C269.82 118.98 269.871 118.726 269.871 118.455C269.871 118.193 269.82 117.943 269.719 117.706C269.617 117.469 269.478 117.262 269.3 117.084C269.122 116.906 268.915 116.767 268.678 116.665C268.441 116.555 268.191 116.5 267.929 116.5H260.769C260.227 116.5 259.719 116.398 259.245 116.195C258.771 115.992 258.356 115.717 258.001 115.37C257.654 115.015 257.379 114.6 257.176 114.126C256.973 113.652 256.871 113.144 256.871 112.603C256.871 112.061 256.973 111.553 257.176 111.079C257.379 110.605 257.654 110.195 258.001 109.848C258.356 109.492 258.771 109.213 259.245 109.01C259.719 108.807 260.227 108.705 260.769 108.705H271.179V111.295H260.769C260.405 111.295 260.096 111.422 259.842 111.676C259.596 111.921 259.474 112.23 259.474 112.603C259.474 112.966 259.596 113.275 259.842 113.529C260.096 113.775 260.405 113.897 260.769 113.897H267.929C268.555 113.897 269.143 114.016 269.693 114.253C270.252 114.49 270.734 114.816 271.141 115.23C271.555 115.645 271.881 116.128 272.118 116.678C272.355 117.228 272.474 117.82 272.474 118.455Z" fill="black"/>
</svg>
