<svg width="353" height="354" viewBox="0 0 353 354" fill="none" xmlns="http://www.w3.org/2000/svg">
<ellipse cx="176.5" cy="177" rx="176.5" ry="177" fill="#003756"/>
<path d="M221 313L265 280L289 234L314 211H338L328 193L308 187L289 201L282 211L275 201L256 187L233 193L221 211H246L269 237L256 261L227 275H198L169 270L149 253L133 223L113 201L76 193L45 211M221 313L156 323L113 313L94.5 296.5M221 313L156 304L122 280L113 296.5L122 336L106 323L94.5 296.5M45 211L52 243L76 280L94.5 296.5M45 211L76 223L95 253L94.5 296.5M176 201L133 174L113 125V67L122 52L128 67V125L143 163L169 141V111V67V40L176 18L187 40V67V111V141L215 163L233 125V67L239 52L246 67V125L227 174L176 201Z" stroke="white" stroke-width="5"/>
<ellipse cx="177" cy="107.5" rx="117" ry="96.5" fill="#F3C377"/>
<path d="M107.346 91.6875C107.346 91.8906 107.244 92.0176 107.041 92.0684C106.669 92.153 106.322 92.2292 106 92.2969C105.678 92.3477 105.331 92.4492 104.959 92.6016C104.113 92.974 103.368 93.4987 102.725 94.1758C102.098 94.8359 101.531 95.5723 101.023 96.3848C100.533 97.1973 100.101 98.0436 99.7285 98.9238C99.373 99.804 99.043 100.65 98.7383 101.463C98.4336 102.275 98.1289 103.173 97.8242 104.154C97.5195 105.119 97.1895 106.092 96.834 107.074C96.4954 108.039 96.1061 108.97 95.666 109.867C95.2428 110.764 94.7435 111.543 94.168 112.203C94.1172 112.254 94.0495 112.288 93.9648 112.305C93.8971 112.322 93.821 112.33 93.7363 112.33C93.584 112.33 93.4824 112.262 93.4316 112.127C93.1777 111.484 92.9831 110.781 92.8477 110.02C92.7292 109.241 92.6276 108.505 92.543 107.811C92.2891 105.61 92.0775 103.418 91.9082 101.234C91.7559 99.0339 91.4766 96.8503 91.0703 94.6836C90.4779 96.1732 89.9277 97.6628 89.4199 99.1523C88.9121 100.642 88.3704 102.132 87.7949 103.621C87.3887 104.671 86.9401 105.695 86.4492 106.693C85.9753 107.692 85.3913 108.64 84.6973 109.537C84.3418 109.994 83.944 110.417 83.5039 110.807C83.0638 111.196 82.5898 111.535 82.082 111.822C81.5742 112.11 81.041 112.33 80.4824 112.482C79.9238 112.652 79.3483 112.736 78.7559 112.736C78.6712 112.736 78.6035 112.694 78.5527 112.609C78.485 112.525 78.4512 112.44 78.4512 112.355C78.4512 112.152 78.5443 112.034 78.7305 112C79.069 111.915 79.3991 111.848 79.7207 111.797C80.0254 111.729 80.347 111.628 80.6855 111.492C81.4811 111.137 82.1751 110.646 82.7676 110.02C83.377 109.393 83.9186 108.699 84.3926 107.938C84.8665 107.176 85.2728 106.38 85.6113 105.551C85.9668 104.721 86.2884 103.926 86.5762 103.164C86.8301 102.487 87.0671 101.801 87.2871 101.107C87.5241 100.413 87.7526 99.7279 87.9727 99.0508C88.2096 98.3568 88.4551 97.6712 88.709 96.9941C88.9798 96.3171 89.2845 95.6569 89.623 95.0137C89.1491 95.3014 88.6667 95.5638 88.1758 95.8008C87.6849 96.0208 87.2025 96.2747 86.7285 96.5625C86.0514 96.9688 85.3743 97.4512 84.6973 98.0098C84.0371 98.5684 83.5378 99.2285 83.1992 99.9902C83.1146 100.176 83.0553 100.363 83.0215 100.549C82.9876 100.718 82.9453 100.896 82.8945 101.082C82.8438 101.251 82.7253 101.336 82.5391 101.336C82.4883 101.336 82.4036 101.302 82.2852 101.234C82.1836 101.167 82.1328 101.099 82.1328 101.031C82.1328 100.405 82.2428 99.821 82.4629 99.2793C82.6829 98.7376 82.9792 98.2383 83.3516 97.7812C83.724 97.3073 84.1471 96.8757 84.6211 96.4863C85.0951 96.097 85.5775 95.75 86.0684 95.4453C86.8639 94.9544 87.6764 94.4805 88.5059 94.0234C89.3522 93.5664 90.2155 93.1855 91.0957 92.8809H91.1465C91.2819 92.8809 91.4004 92.9316 91.502 93.0332C91.6204 93.1348 91.6628 93.2533 91.6289 93.3887C92.1198 95.0306 92.4922 96.681 92.7461 98.3398C93 99.9987 93.2285 101.674 93.4316 103.367C93.5671 104.518 93.7025 105.669 93.8379 106.82C93.9733 107.954 94.0749 109.105 94.1426 110.273C94.7689 108.733 95.3359 107.193 95.8438 105.652C96.3685 104.095 96.9271 102.546 97.5195 101.006C97.9596 99.8887 98.4336 98.8053 98.9414 97.7559C99.4492 96.6895 100.059 95.6823 100.77 94.7344C101.142 94.2604 101.557 93.8203 102.014 93.4141C102.488 92.9909 102.987 92.627 103.512 92.3223C104.053 92.0007 104.62 91.7552 105.213 91.5859C105.805 91.3997 106.406 91.3066 107.016 91.3066C107.1 91.3066 107.176 91.349 107.244 91.4336C107.312 91.5182 107.346 91.6029 107.346 91.6875ZM111.51 108.039C111.07 108.936 110.613 109.74 110.139 110.451C109.665 111.145 109.047 111.822 108.285 112.482C107.913 112.821 107.49 112.99 107.016 112.99C106.762 112.99 106.516 112.914 106.279 112.762C106.059 112.626 105.907 112.432 105.822 112.178C105.788 112.093 105.763 111.975 105.746 111.822C105.746 111.67 105.738 111.509 105.721 111.34C105.721 111.171 105.721 111.01 105.721 110.857C105.738 110.688 105.746 110.553 105.746 110.451C105.154 111.162 104.451 111.763 103.639 112.254C102.843 112.762 101.963 113.016 100.998 113.016C100.947 113.016 100.871 112.999 100.77 112.965C100.685 112.931 100.617 112.906 100.566 112.889C100.177 112.702 99.8809 112.406 99.6777 112C99.4915 111.594 99.3984 111.188 99.3984 110.781C99.3984 110.223 99.4661 109.673 99.6016 109.131C99.7539 108.572 99.9486 108.039 100.186 107.531C100.439 107.007 100.727 106.507 101.049 106.033C101.37 105.559 101.709 105.111 102.064 104.688C102.979 103.553 104.028 102.572 105.213 101.742C106.398 100.896 107.684 100.219 109.072 99.7109C109.089 99.694 109.123 99.6855 109.174 99.6855C109.292 99.6855 109.377 99.7279 109.428 99.8125C109.495 99.8971 109.529 99.9902 109.529 100.092C109.529 100.244 109.47 100.346 109.352 100.396C109.064 100.549 108.776 100.693 108.488 100.828C108.217 100.947 107.947 101.082 107.676 101.234C105.797 102.318 104.214 103.706 102.928 105.398C102.674 105.737 102.411 106.118 102.141 106.541C101.87 106.964 101.624 107.404 101.404 107.861C101.184 108.301 100.998 108.758 100.846 109.232C100.71 109.706 100.643 110.163 100.643 110.604C100.643 110.671 100.651 110.773 100.668 110.908C100.685 111.027 100.71 111.154 100.744 111.289C100.778 111.408 100.829 111.518 100.896 111.619C100.981 111.704 101.074 111.746 101.176 111.746C101.667 111.746 102.141 111.619 102.598 111.365C103.072 111.111 103.512 110.79 103.918 110.4C104.324 110.011 104.688 109.596 105.01 109.156C105.331 108.716 105.594 108.301 105.797 107.912C106.186 107.201 106.533 106.49 106.838 105.779C107.143 105.051 107.447 104.324 107.752 103.596C107.87 103.291 108.006 102.936 108.158 102.529C108.327 102.123 108.488 101.776 108.641 101.488C108.708 101.37 108.818 101.311 108.971 101.311C109.089 101.311 109.191 101.344 109.275 101.412C109.36 101.48 109.402 101.573 109.402 101.691L109.377 101.742C109.242 102.352 109.089 102.969 108.92 103.596C108.751 104.205 108.564 104.806 108.361 105.398C108.277 105.635 108.175 105.898 108.057 106.186C107.938 106.473 107.845 106.719 107.777 106.922C107.743 107.04 107.718 107.159 107.701 107.277C107.701 107.396 107.693 107.514 107.676 107.633C107.625 107.904 107.566 108.174 107.498 108.445C107.447 108.699 107.388 108.962 107.32 109.232C107.236 109.571 107.16 109.918 107.092 110.273C107.041 110.612 107.016 110.959 107.016 111.314C107.016 111.399 107.016 111.475 107.016 111.543C107.016 111.611 107.024 111.678 107.041 111.746C107.16 111.746 107.295 111.695 107.447 111.594C107.617 111.492 107.786 111.374 107.955 111.238C108.124 111.086 108.277 110.934 108.412 110.781C108.564 110.629 108.683 110.51 108.768 110.426C109.275 109.884 109.758 109.283 110.215 108.623C110.333 108.488 110.435 108.344 110.52 108.191C110.621 108.022 110.731 107.87 110.85 107.734C110.9 107.65 110.977 107.607 111.078 107.607C111.197 107.607 111.298 107.65 111.383 107.734C111.467 107.819 111.51 107.921 111.51 108.039ZM124.434 109.486C124.434 109.554 124.4 109.622 124.332 109.689C123.993 110.079 123.672 110.46 123.367 110.832C123.062 111.204 122.732 111.551 122.377 111.873C122.038 112.195 121.658 112.474 121.234 112.711C120.828 112.948 120.363 113.126 119.838 113.244C119.059 112.889 118.67 112.288 118.67 111.441C118.67 111.255 118.687 111.069 118.721 110.883C118.755 110.68 118.763 110.477 118.746 110.273C118.509 110.527 118.213 110.815 117.857 111.137C117.519 111.441 117.146 111.738 116.74 112.025C116.351 112.313 115.953 112.55 115.547 112.736C115.141 112.939 114.76 113.041 114.404 113.041C113.93 113.041 113.541 112.939 113.236 112.736C112.932 112.55 112.686 112.305 112.5 112C112.331 111.678 112.212 111.323 112.145 110.934C112.077 110.527 112.043 110.13 112.043 109.74C112.043 109.334 112.068 108.936 112.119 108.547C112.204 107.734 112.348 106.956 112.551 106.211C112.754 105.449 112.999 104.696 113.287 103.951C113.507 103.426 113.736 102.91 113.973 102.402C114.21 101.878 114.447 101.361 114.684 100.854C114.768 100.684 114.853 100.498 114.938 100.295C115.022 100.075 115.115 99.8971 115.217 99.7617C115.301 99.6432 115.403 99.584 115.521 99.584C115.606 99.584 115.699 99.6263 115.801 99.7109C115.902 99.7956 115.953 99.8802 115.953 99.9648C115.953 100.083 115.928 100.253 115.877 100.473C115.843 100.676 115.792 100.896 115.725 101.133C115.674 101.353 115.615 101.573 115.547 101.793C115.496 101.996 115.445 102.157 115.395 102.275C115.208 102.885 114.988 103.494 114.734 104.104C114.497 104.696 114.269 105.305 114.049 105.932C113.846 106.541 113.668 107.159 113.516 107.785C113.38 108.411 113.312 109.046 113.312 109.689C113.312 109.876 113.321 110.096 113.338 110.35C113.355 110.587 113.397 110.824 113.465 111.061C113.533 111.281 113.634 111.475 113.77 111.645C113.922 111.797 114.125 111.873 114.379 111.873C114.717 111.873 115.098 111.763 115.521 111.543C115.962 111.306 116.393 111.035 116.816 110.73C117.257 110.409 117.671 110.079 118.061 109.74C118.45 109.402 118.763 109.122 119 108.902C119.152 108.174 119.355 107.362 119.609 106.465C119.88 105.551 120.193 104.637 120.549 103.723C120.904 102.809 121.294 101.945 121.717 101.133C122.14 100.303 122.597 99.6094 123.088 99.0508C123.173 98.9661 123.257 98.9238 123.342 98.9238C123.443 98.9238 123.545 98.9661 123.646 99.0508C123.748 99.1354 123.799 99.237 123.799 99.3555C123.782 99.3724 123.773 99.3893 123.773 99.4062C123.452 100.303 123.062 101.277 122.605 102.326C122.165 103.359 121.742 104.417 121.336 105.5C120.93 106.566 120.583 107.633 120.295 108.699C120.007 109.766 119.863 110.781 119.863 111.746C119.863 111.814 119.863 111.882 119.863 111.949C119.88 112.017 119.923 112.068 119.99 112.102C120.38 112.034 120.786 111.839 121.209 111.518C121.649 111.196 122.055 110.857 122.428 110.502C122.817 110.13 123.156 109.799 123.443 109.512C123.731 109.224 123.917 109.08 124.002 109.08C124.104 109.08 124.197 109.122 124.281 109.207C124.383 109.292 124.434 109.385 124.434 109.486ZM132.33 95.3691C132.33 95.403 132.322 95.4284 132.305 95.4453C132.305 95.4622 132.305 95.4792 132.305 95.4961C131.78 96.6641 131.238 97.8236 130.68 98.9746C130.121 100.109 129.622 101.285 129.182 102.504C129.368 102.504 129.546 102.504 129.715 102.504C129.884 102.487 130.062 102.479 130.248 102.479C130.333 102.479 130.426 102.479 130.527 102.479C130.646 102.462 130.747 102.47 130.832 102.504C130.934 102.521 131.018 102.563 131.086 102.631C131.154 102.682 131.188 102.775 131.188 102.91C131.188 103.079 131.12 103.189 130.984 103.24C130.866 103.274 130.705 103.316 130.502 103.367C130.316 103.401 130.113 103.435 129.893 103.469C129.689 103.503 129.486 103.536 129.283 103.57C129.097 103.587 128.936 103.604 128.801 103.621C128.648 104.061 128.505 104.552 128.369 105.094C128.234 105.618 128.115 106.169 128.014 106.744C127.912 107.303 127.827 107.861 127.76 108.42C127.692 108.962 127.658 109.461 127.658 109.918C127.658 110.036 127.658 110.223 127.658 110.477C127.675 110.714 127.701 110.951 127.734 111.188C127.785 111.424 127.853 111.636 127.938 111.822C128.039 112.008 128.174 112.102 128.344 112.102C128.581 112.102 128.852 111.983 129.156 111.746C129.461 111.509 129.757 111.238 130.045 110.934C130.35 110.612 130.629 110.299 130.883 109.994C131.154 109.673 131.374 109.427 131.543 109.258C131.611 109.19 131.687 109.156 131.771 109.156C131.873 109.156 131.966 109.199 132.051 109.283C132.152 109.368 132.203 109.461 132.203 109.562C132.203 109.613 132.178 109.673 132.127 109.74C131.941 110.011 131.695 110.35 131.391 110.756C131.103 111.145 130.781 111.526 130.426 111.898C130.087 112.254 129.723 112.559 129.334 112.812C128.962 113.066 128.598 113.193 128.242 113.193C127.853 113.193 127.54 113.058 127.303 112.787C127.066 112.516 126.88 112.195 126.744 111.822C126.626 111.433 126.541 111.035 126.49 110.629C126.456 110.206 126.439 109.85 126.439 109.562C126.439 109.156 126.465 108.699 126.516 108.191C126.583 107.684 126.66 107.167 126.744 106.643C126.829 106.118 126.93 105.61 127.049 105.119C127.167 104.611 127.277 104.154 127.379 103.748C127.243 103.748 127.108 103.757 126.973 103.773C126.854 103.773 126.727 103.773 126.592 103.773C126.236 103.773 125.872 103.765 125.5 103.748C125.128 103.731 124.764 103.697 124.408 103.646C124.053 103.579 123.706 103.477 123.367 103.342C123.029 103.189 122.724 102.986 122.453 102.732C122.385 102.682 122.352 102.605 122.352 102.504C122.352 102.47 122.402 102.385 122.504 102.25C122.605 102.098 122.673 102.021 122.707 102.021C123.333 102.021 123.951 102.089 124.561 102.225C125.17 102.36 125.788 102.445 126.414 102.479C126.617 102.495 126.82 102.504 127.023 102.504C127.243 102.504 127.464 102.504 127.684 102.504H127.76C127.946 101.928 128.174 101.302 128.445 100.625C128.716 99.9479 129.021 99.2793 129.359 98.6191C129.698 97.959 130.053 97.3242 130.426 96.7148C130.815 96.0885 131.213 95.5469 131.619 95.0898C131.721 95.0221 131.805 94.9883 131.873 94.9883C131.975 94.9883 132.076 95.0306 132.178 95.1152C132.279 95.1829 132.33 95.2676 132.33 95.3691ZM139.312 93.084C139.312 93.1855 139.27 93.304 139.186 93.4395L139.16 93.5156C139.194 93.6172 139.211 93.6934 139.211 93.7441C139.092 93.8288 139.008 93.9219 138.957 94.0234C138.906 94.1081 138.788 94.1504 138.602 94.1504C138.449 94.1504 138.297 94.0911 138.145 93.9727C137.992 93.8372 137.916 93.6764 137.916 93.4902C137.916 93.1855 137.941 92.9401 137.992 92.7539C138.06 92.5508 138.288 92.4492 138.678 92.4492C138.83 92.4492 138.974 92.5169 139.109 92.6523C139.245 92.7878 139.312 92.9316 139.312 93.084ZM139.135 109.283C139.135 109.368 139.109 109.436 139.059 109.486C138.737 109.876 138.424 110.265 138.119 110.654C137.831 111.027 137.518 111.374 137.18 111.695C136.858 112.017 136.494 112.288 136.088 112.508C135.682 112.745 135.216 112.914 134.691 113.016C134.234 112.812 133.921 112.542 133.752 112.203C133.583 111.882 133.498 111.484 133.498 111.01V110.096C133.498 109.656 133.54 109.199 133.625 108.725C133.727 108.251 133.828 107.794 133.93 107.354C134.082 106.693 134.251 105.982 134.438 105.221C134.641 104.459 134.869 103.706 135.123 102.961C135.394 102.199 135.699 101.471 136.037 100.777C136.376 100.066 136.757 99.4486 137.18 98.9238C137.264 98.8392 137.349 98.7969 137.434 98.7969C137.535 98.7969 137.637 98.8392 137.738 98.9238C137.84 98.9915 137.891 99.0846 137.891 99.2031V99.2539C137.603 100.151 137.273 101.099 136.9 102.098C136.545 103.079 136.198 104.087 135.859 105.119C135.538 106.135 135.258 107.15 135.021 108.166C134.801 109.182 134.691 110.163 134.691 111.111C134.691 111.213 134.691 111.357 134.691 111.543C134.708 111.729 134.768 111.848 134.869 111.898C135.242 111.831 135.631 111.636 136.037 111.314C136.46 110.993 136.85 110.654 137.205 110.299C137.577 109.943 137.899 109.622 138.17 109.334C138.441 109.046 138.627 108.902 138.729 108.902C138.813 108.902 138.898 108.945 138.982 109.029C139.084 109.114 139.135 109.199 139.135 109.283ZM147.311 100.041C147.311 100.21 147.243 100.32 147.107 100.371C146.82 100.507 146.532 100.633 146.244 100.752C145.973 100.87 145.702 101.023 145.432 101.209C144.298 101.903 143.324 102.783 142.512 103.85C141.699 104.916 141.124 106.092 140.785 107.379C140.633 108.039 140.557 108.708 140.557 109.385C140.557 109.622 140.574 109.884 140.607 110.172C140.641 110.443 140.701 110.714 140.785 110.984C140.887 111.255 141.014 111.501 141.166 111.721C141.335 111.941 141.547 112.102 141.801 112.203C141.818 112.22 141.843 112.229 141.877 112.229C141.928 112.229 141.962 112.229 141.979 112.229C142.402 112.229 142.791 112.118 143.146 111.898C143.502 111.661 143.824 111.399 144.111 111.111C144.568 110.654 145 110.13 145.406 109.537C145.491 109.419 145.576 109.3 145.66 109.182C145.745 109.063 145.829 108.953 145.914 108.852C145.965 108.767 146.041 108.725 146.143 108.725C146.244 108.725 146.337 108.767 146.422 108.852C146.523 108.919 146.574 109.004 146.574 109.105C146.574 109.139 146.532 109.224 146.447 109.359C146.38 109.495 146.295 109.647 146.193 109.816C146.092 109.969 145.99 110.121 145.889 110.273C145.804 110.409 145.745 110.502 145.711 110.553C145.474 110.908 145.22 111.255 144.949 111.594C144.695 111.932 144.408 112.229 144.086 112.482C143.781 112.736 143.434 112.939 143.045 113.092C142.656 113.244 142.232 113.32 141.775 113.32C141.674 113.32 141.598 113.312 141.547 113.295C141.225 113.244 140.938 113.117 140.684 112.914C140.447 112.728 140.235 112.491 140.049 112.203C139.88 111.932 139.744 111.645 139.643 111.34C139.541 111.018 139.465 110.714 139.414 110.426C139.38 110.223 139.355 110.02 139.338 109.816C139.321 109.613 139.312 109.402 139.312 109.182C139.312 108.454 139.397 107.76 139.566 107.1C139.736 106.355 139.981 105.618 140.303 104.891C140.641 104.163 141.048 103.486 141.521 102.859C141.995 102.233 142.537 101.683 143.146 101.209C143.756 100.718 144.433 100.329 145.178 100.041C145.432 99.9395 145.719 99.8464 146.041 99.7617C146.363 99.6602 146.667 99.6094 146.955 99.6094C147.04 99.6094 147.116 99.6602 147.184 99.7617C147.268 99.8633 147.311 99.9564 147.311 100.041ZM166.404 112H163.802V96.3975H154.598V93.7949H175.608V96.3975H166.404V112ZM190.729 100.295H180.979C180.708 100.295 180.454 100.35 180.217 100.46C179.98 100.562 179.772 100.701 179.595 100.879C179.417 101.057 179.277 101.264 179.176 101.501C179.074 101.738 179.023 101.988 179.023 102.25V112H176.421V102.25C176.421 101.615 176.539 101.023 176.776 100.473C177.013 99.9225 177.339 99.4443 177.754 99.0381C178.169 98.6234 178.651 98.2975 179.201 98.0605C179.751 97.8236 180.344 97.7051 180.979 97.7051H190.729V100.295ZM208.68 112H195.68C195.045 112 194.452 111.882 193.902 111.645C193.352 111.408 192.87 111.086 192.455 110.68C192.04 110.265 191.715 109.783 191.478 109.232C191.241 108.674 191.122 108.081 191.122 107.455C191.122 106.82 191.241 106.228 191.478 105.678C191.715 105.128 192.04 104.645 192.455 104.23C192.87 103.816 193.352 103.49 193.902 103.253C194.452 103.016 195.045 102.897 195.68 102.897H204.77V105.5H195.68C195.409 105.5 195.155 105.555 194.918 105.665C194.681 105.767 194.474 105.906 194.296 106.084C194.118 106.262 193.979 106.469 193.877 106.706C193.775 106.943 193.725 107.193 193.725 107.455C193.725 107.726 193.775 107.98 193.877 108.217C193.979 108.445 194.118 108.648 194.296 108.826C194.474 109.004 194.681 109.144 194.918 109.245C195.155 109.347 195.409 109.397 195.68 109.397H206.077V102.25C206.077 101.988 206.022 101.738 205.912 101.501C205.811 101.264 205.671 101.057 205.493 100.879C205.315 100.701 205.108 100.562 204.871 100.46C204.634 100.35 204.384 100.295 204.122 100.295H193.725V97.7051H204.122C204.757 97.7051 205.349 97.8236 205.899 98.0605C206.45 98.2975 206.932 98.6234 207.347 99.0381C207.761 99.4443 208.087 99.9225 208.324 100.473C208.561 101.023 208.68 101.615 208.68 102.25V112ZM229.233 97.7051L221.337 112H218.366L210.521 97.7051H213.555L219.852 109.296L226.199 97.7051H229.233ZM247.629 102.25C247.629 102.885 247.51 103.477 247.273 104.027C247.036 104.577 246.711 105.06 246.296 105.475C245.89 105.881 245.407 106.202 244.849 106.439C244.299 106.676 243.71 106.795 243.084 106.795H233.118C233.304 107.176 233.537 107.527 233.816 107.849C234.096 108.17 234.409 108.445 234.756 108.674C235.103 108.902 235.479 109.08 235.886 109.207C236.3 109.334 236.732 109.397 237.181 109.397H245.687V112H237.181C236.199 111.992 235.276 111.801 234.413 111.429C233.55 111.048 232.797 110.536 232.153 109.893C231.519 109.241 231.015 108.483 230.643 107.62C230.27 106.757 230.084 105.834 230.084 104.853C230.084 103.871 230.27 102.948 230.643 102.085C231.015 101.222 231.519 100.468 232.153 99.8252C232.797 99.1735 233.55 98.6615 234.413 98.2891C235.276 97.9082 236.199 97.7135 237.181 97.7051H243.084C243.71 97.7051 244.299 97.8236 244.849 98.0605C245.407 98.2975 245.89 98.6234 246.296 99.0381C246.711 99.4443 247.036 99.9225 247.273 100.473C247.51 101.023 247.629 101.615 247.629 102.25ZM243.084 104.205C243.346 104.205 243.596 104.154 243.833 104.053C244.07 103.951 244.277 103.812 244.455 103.634C244.633 103.456 244.772 103.249 244.874 103.012C244.976 102.775 245.026 102.521 245.026 102.25C245.026 101.988 244.976 101.738 244.874 101.501C244.772 101.264 244.633 101.057 244.455 100.879C244.277 100.701 244.07 100.562 243.833 100.46C243.596 100.35 243.346 100.295 243.084 100.295H237.181C236.605 100.295 236.063 100.396 235.556 100.6C235.056 100.803 234.608 101.082 234.21 101.438C233.821 101.785 233.495 102.199 233.232 102.682C232.979 103.156 232.813 103.663 232.737 104.205H243.084ZM255.284 112H254.637C254.002 112 253.41 111.882 252.859 111.645C252.309 111.408 251.827 111.086 251.412 110.68C250.997 110.265 250.672 109.783 250.435 109.232C250.198 108.674 250.079 108.081 250.079 107.455V92.5H252.682V107.455C252.682 107.726 252.732 107.98 252.834 108.217C252.936 108.445 253.075 108.648 253.253 108.826C253.431 109.004 253.638 109.144 253.875 109.245C254.112 109.347 254.366 109.397 254.637 109.397H255.284V112ZM272.474 107.455C272.474 108.081 272.355 108.674 272.118 109.232C271.881 109.783 271.555 110.265 271.141 110.68C270.734 111.086 270.252 111.408 269.693 111.645C269.143 111.882 268.555 112 267.929 112H256.871V109.397H267.929C268.191 109.397 268.441 109.347 268.678 109.245C268.915 109.144 269.122 109.004 269.3 108.826C269.478 108.648 269.617 108.445 269.719 108.217C269.82 107.98 269.871 107.726 269.871 107.455C269.871 107.193 269.82 106.943 269.719 106.706C269.617 106.469 269.478 106.262 269.3 106.084C269.122 105.906 268.915 105.767 268.678 105.665C268.441 105.555 268.191 105.5 267.929 105.5H260.769C260.227 105.5 259.719 105.398 259.245 105.195C258.771 104.992 258.356 104.717 258.001 104.37C257.654 104.015 257.379 103.6 257.176 103.126C256.973 102.652 256.871 102.144 256.871 101.603C256.871 101.061 256.973 100.553 257.176 100.079C257.379 99.6051 257.654 99.1947 258.001 98.8477C258.356 98.4922 258.771 98.2129 259.245 98.0098C259.719 97.8066 260.227 97.7051 260.769 97.7051H271.179V100.295H260.769C260.405 100.295 260.096 100.422 259.842 100.676C259.596 100.921 259.474 101.23 259.474 101.603C259.474 101.966 259.596 102.275 259.842 102.529C260.096 102.775 260.405 102.897 260.769 102.897H267.929C268.555 102.897 269.143 103.016 269.693 103.253C270.252 103.49 270.734 103.816 271.141 104.23C271.555 104.645 271.881 105.128 272.118 105.678C272.355 106.228 272.474 106.82 272.474 107.455Z" fill="black"/>
</svg>
